<?xml version="1.0" encoding="utf-8"?>
<!-- Generator: Adobe Illustrator 19.0.0, SVG Export Plug-In . SVG Version: 6.00 Build 0)  -->
<svg version="1.1" id="layer" xmlns="http://www.w3.org/2000/svg" xmlns:xlink="http://www.w3.org/1999/xlink" x="0px" y="0px"
	 viewBox="-153 -46 652 652" style="enable-background:new -153 -46 652 652;" xml:space="preserve">
<style type="text/css">
	.st0{fill:#0F206C;}
</style>
<g>
	<path class="st0" d="M-51.8,225.6h-16.1c0,0,0,33,0,38.1c-5,0-39.9,0-44.9,0c0-5.2,0-38.1,0-38.1H-132v98.9h19.1c0,0,0-38.5,0-43.8
		c5,0,39.9,0,44.9,0c0,5.2,0,43.8,0,43.8h19.1v-98.9H-51.8"/>
	<path class="st0" d="M49.5,248.9c-4.1-7.8-10.2-14-17.9-18.4c-7.7-4.3-16.5-6.5-26.1-6.5c-14.7,0-26.8,4.7-36.2,14
		c-9.3,9.3-14.1,22.1-14.1,38.3c0,8.5,2,16.8,6,24.4c4,7.8,10,14.1,17.7,18.5c7.7,4.5,16.6,6.7,26.4,6.7c9,0,17.5-2,25.3-6.1
		c7.9-4.1,14.1-10.2,18.4-18c4.2-7.8,6.4-16.8,6.4-26.6C55.6,265.5,53.6,256.7,49.5,248.9 M36.2,275.2c0,11-2.9,19.6-8.7,25.5
		c-5.8,5.9-13,8.8-22.1,8.8c-8.9,0-16.1-2.9-22-8.7c-5.8-5.8-8.7-14-8.7-24.3c0-13,3-22.3,9-27.6c6.2-5.5,13.3-8.1,21.9-8.1
		c5.9,0,11.3,1.4,16.1,4.2s8.3,6.6,10.7,11.8C34.9,262,36.2,268.1,36.2,275.2z"/>
	<path class="st0" d="M78.8,307.5c0-5.6,0-81.9,0-81.9H59.7v98.9h67.5v-17C127.2,307.5,84.2,307.5,78.8,307.5"/>
	<path class="st0" d="M211.7,248.9c-4.1-7.8-10.1-14-17.9-18.4c-7.7-4.3-16.5-6.5-26.1-6.5c-14.7,0-26.8,4.7-36.1,14
		c-9.4,9.3-14.1,22.1-14.1,38.3c0,8.6,2,16.8,6,24.4c4,7.8,10,14.1,17.8,18.5c7.7,4.5,16.6,6.7,26.3,6.7c9,0,17.5-2,25.3-6.1
		c7.9-4.1,14.1-10.2,18.4-18c4.3-7.8,6.4-16.8,6.4-26.6C217.8,265.5,215.7,256.7,211.7,248.9 M198.4,275.2c0,11-2.9,19.6-8.7,25.5
		c-5.8,5.9-13,8.8-22.1,8.8c-8.9,0-16.1-2.9-22-8.7S137,287,137,276.5c0-13,3-22.3,9-27.6c6.2-5.5,13.3-8.1,21.9-8.1
		c5.9,0,11.3,1.4,16.1,4.2c4.8,2.8,8.3,6.6,10.7,11.8C197.1,262,198.4,268.1,198.4,275.2z"/>
	<path class="st0" d="M271.9,271.1v17c0,0,24.1,0,28.9,0c0,3.7,0,10.6,0,12.7c-2.5,1.9-5.9,3.7-10.3,5.4c-5,1.9-10.2,2.9-15.4,2.9
		c-6,0-11.8-1.2-17.1-3.7c-5.2-2.4-9.1-6.1-11.8-11.1c-2.7-5.1-4.1-11.6-4.1-19.3c0-6.2,1.2-12.1,3.5-17.5c1.3-3,3.2-5.8,5.6-8.3
		c2.3-2.4,5.5-4.5,9.5-6c4-1.6,8.7-2.3,14.3-2.3c4.5,0,8.7,0.8,12.4,2.2c3.5,1.4,6.3,3.3,8.1,5.5c2,2.4,3.6,5.8,4.9,10.2l0.9,2.7
		l17.5-4.6l-0.8-3c-1.8-6.6-4.5-12.1-8-16.3c-3.6-4.3-8.6-7.7-14.8-10c-6.1-2.3-12.9-3.4-20.4-3.4c-10.2,0-19.5,2-27.3,6
		c-8,4.1-14.4,10.4-18.6,18.7c-4.2,8.2-6.3,17.2-6.3,26.6c0,9.6,2.2,18.4,6.4,26.2c4.3,7.9,10.8,14,19.2,18.2
		c8.3,4.1,17.6,6.2,27.7,6.2c7.5,0,14.8-1.2,22-3.8c7-2.5,14-6.3,20.6-11.3l1.2-0.9v-38.8H271.9"/>
	<polyline class="st0" points="343.5,225.6 327.4,225.6 327.4,324.5 346.5,324.5 346.5,225.6 343.5,225.6 	"/>
	<path class="st0" d="M426.9,285.3l-0.7,3c-1.6,7-4.7,12.4-9.2,15.9c-4.5,3.6-10,5.3-16.6,5.3c-5.5,0-10.5-1.3-15.2-4
		c-4.6-2.6-7.9-6.4-10.1-11.7c-2.3-5.5-3.4-12-3.4-19.5c0-5.7,0.9-11.3,2.9-16.7c1.9-5.2,5-9.2,9.5-12.3c4.5-3,10.4-4.6,17.3-4.6
		c5.9,0,10.9,1.3,14.7,4.1c3.7,2.7,6.8,7.1,8.8,13.2l0.9,2.6l18.6-4.1l-0.9-3.1c-2.8-9.2-7.9-16.5-15.2-21.6
		c-7.2-5.1-16.2-7.7-26.6-7.7c-9.1,0-17.7,2-25.2,5.9c-7.7,4-13.8,9.9-18,17.6c-4.1,7.6-6.2,16.6-6.2,26.7c0,9.2,1.9,18,5.5,26.1
		c3.7,8.3,9.2,14.6,16.3,19c7.1,4.4,16.3,6.6,27.4,6.6c10.9,0,20.2-2.9,27.8-8.5c7.7-5.6,13-14,15.9-24.7l0.9-3L426.9,285.3"/>
</g>
<g>
	<path class="st0" d="M457.5,248.1c-6.2,0-10.6-4.7-10.6-10.8c0-6.5,4.9-10.8,10.6-10.8s10.5,4.3,10.5,10.8
		C468,243.8,463.1,248.1,457.5,248.1z M457.5,228.5c-4.7,0-8.4,3.7-8.4,8.9c0,4.9,3.2,8.9,8.4,8.9c4.6,0,8.3-3.7,8.3-8.9
		C465.7,232.1,462.1,228.5,457.5,228.5z M455.3,243.5h-2v-12h4.5c2.9,0,4.4,1,4.4,3.4c0,2.2-1.3,3-3.1,3.3l3.4,5.2h-2.3l-3.1-5.2
		h-1.9L455.3,243.5L455.3,243.5z M457.5,236.7c1.5,0,2.8-0.2,2.8-1.9c0-1.5-1.4-1.6-2.6-1.6h-2.3v3.5H457.5z"/>
</g>
</svg>
